# xmcd
# 
# Track frame offsets:
#     150
#     20064
#     39705
#     59619
# 
# Disc length: 1054
# 
# Revision: 1
# Processed by: cddbd v1.5.2PL0 Copyright (c) Steve Scherf et al.
# Submitted via: fre:ac v1.0.17
# 
DISCID=35041c04
DTITLE=結城アイラ - REINCARNATION BLUE
DYEAR=2013
DGENRE=Anime
TTITLE0=REINCARNATION BLUE
TTITLE1=ROUTE EXIT
TTITLE2=REINCARNATION BLUE（OFF VOCAL）
TTITLE3=ROUTE EXIT（OFF VOCAL）
EXTD=
EXTT0=
EXTT1=
EXTT2=
EXTT3=
PLAYORDER=
